<svg xmlns="http://www.w3.org/2000/svg" xml:space="preserve" width="600" height="600" style="shape-rendering:geometricPrecision;text-rendering:geometricPrecision;image-rendering:optimizeQuality;fill-rule:evenodd;clip-rule:evenodd"><path d="M300 0c166 0 300 134 300 300S466 600 300 600 0 466 0 300 134 0 300 0zm0 28c150 0 272 122 272 272S450 572 300 572 28 450 28 300 150 28 300 28zm0 28c135 0 244 109 244 244S435 544 300 544 56 435 56 300 165 56 300 56zM185 396h-36V260c-13 13-28 22-46 28v-33c10-3 20-9 31-17 11-9 18-19 22-30h29v188zm85-101c-9-4-16-10-20-16-5-7-7-15-7-23 0-14 5-25 15-35 10-9 23-13 41-13s32 4 42 13c10 10 14 21 14 35 0 9-2 16-6 23-5 7-11 12-19 16 10 4 18 10 23 18 6 8 8 17 8 28 0 17-5 31-16 42s-26 16-44 16c-17 0-31-4-42-13-14-11-20-25-20-44 0-10 2-19 7-28 5-8 13-15 24-19zm7-36c0 7 2 12 6 16s10 6 16 6c7 0 13-2 17-6s6-9 6-16-2-13-6-17-10-6-16-6c-7 0-13 2-17 6s-6 10-6 17zm-3 80c0 10 2 18 7 23 6 6 12 9 19 9 8 0 14-3 19-9 4-5 7-13 7-23 0-9-3-16-7-21-5-5-12-8-19-8-9 0-15 3-20 9-4 6-6 13-6 20zm159 30v-49h-49v-33h49v-49h33v49h49v33h-49v49h-33z" style="fill:#fff"/></svg>